<mxfile host="app.diagrams.net" modified="2023-10-27T08:47:20.582Z" agent="Mozilla/5.0 (Windows NT 10.0; Win64; x64) AppleWebKit/537.36 (KHTML, like Gecko) Chrome/117.0.0.0 Safari/537.36" version="22.0.8" etag="iq7RtL-qPUiHJ7O3dnHD" type="github">
  <diagram name="Страница — 1" id="aX_EQBhuJZLYvIGVzyPi">
    <mxGraphModel>
      <root>
        <mxCell id="0" />
        <mxCell id="1" parent="0" />
      </root>
    </mxGraphModel>
  </diagram>
</mxfile>
